<?xml version="1.0" standalone="no"?>
<!DOCTYPE svg PUBLIC "-//W3C//DTD SVG 20010904//EN"
 "http://www.w3.org/TR/2001/REC-SVG-20010904/DTD/svg10.dtd">
<svg version="1.0" xmlns="http://www.w3.org/2000/svg"
 width="4096.000000pt" height="4096.000000pt" viewBox="0 0 4096.000000 4096.000000"
 preserveAspectRatio="xMidYMid meet">
<metadata>
Created by potrace 1.14, written by Peter Selinger 2001-2017
</metadata>
<g transform="translate(0.000000,4096.000000) scale(0.100000,-0.100000)"
fill="#000000" stroke="none">
<path d="M19229 40956 c-2 -2 -58 -7 -124 -10 -66 -4 -138 -9 -160 -11 -22 -2
-78 -7 -125 -10 -47 -3 -103 -8 -125 -10 -22 -2 -71 -7 -110 -10 -38 -4 -86
-8 -105 -10 -19 -2 -66 -6 -105 -10 -38 -3 -83 -8 -100 -10 -16 -2 -55 -6 -85
-9 -105 -10 -165 -17 -190 -21 -14 -2 -50 -7 -80 -10 -30 -3 -84 -10 -120 -15
-36 -5 -83 -11 -105 -14 -22 -3 -71 -10 -110 -15 -38 -6 -92 -13 -120 -16 -27
-4 -57 -8 -65 -10 -8 -2 -35 -7 -60 -10 -53 -7 -37 -5 -310 -50 -118 -19 -237
-39 -265 -45 -27 -5 -66 -12 -85 -15 -19 -4 -53 -10 -75 -15 -22 -5 -53 -11
-70 -14 -52 -9 -377 -75 -450 -91 -38 -9 -79 -18 -90 -20 -11 -3 -40 -9 -65
-15 -25 -5 -56 -12 -70 -14 -38 -8 -296 -70 -455 -111 -77 -20 -148 -38 -158
-40 -10 -2 -51 -13 -91 -24 -40 -11 -83 -22 -97 -25 -36 -7 -495 -141 -644
-187 -329 -102 -773 -250 -885 -294 -19 -8 -123 -46 -230 -85 -107 -39 -204
-75 -215 -80 -11 -5 -83 -34 -160 -64 -142 -55 -415 -166 -470 -191 -16 -7
-118 -51 -225 -98 -107 -47 -226 -99 -265 -117 -38 -18 -103 -47 -142 -66
-415 -189 -1020 -501 -1448 -743 -83 -48 -231 -132 -245 -141 -8 -5 -95 -57
-193 -115 -494 -293 -1124 -711 -1601 -1062 -188 -138 -582 -438 -596 -453 -3
-3 -61 -50 -130 -105 -101 -80 -270 -219 -395 -324 -51 -43 -321 -276 -325
-281 -3 -3 -43 -39 -90 -80 -47 -41 -87 -77 -90 -80 -3 -4 -36 -35 -75 -70
-240 -218 -337 -312 -670 -645 -204 -203 -399 -402 -435 -440 -295 -320 -315
-341 -380 -416 -30 -35 -62 -70 -70 -79 -8 -9 -40 -45 -70 -80 -47 -55 -88
-103 -135 -154 -11 -12 -100 -118 -126 -151 -10 -11 -36 -42 -59 -70 -62 -74
-218 -265 -260 -319 -8 -10 -27 -33 -41 -50 -14 -17 -76 -96 -137 -176 -62
-80 -115 -149 -120 -155 -82 -102 -507 -688 -530 -732 -7 -12 -18 -27 -25 -35
-21 -22 -357 -527 -357 -537 0 -5 -4 -11 -8 -13 -8 -3 -254 -393 -321 -508
-18 -30 -53 -89 -78 -130 -25 -41 -55 -93 -68 -115 -12 -22 -55 -96 -95 -165
-78 -135 -107 -187 -165 -295 -21 -38 -45 -83 -55 -100 -17 -29 -43 -78 -142
-265 -59 -110 -305 -603 -351 -700 -19 -41 -54 -115 -77 -165 -81 -172 -208
-461 -304 -690 -54 -126 -101 -239 -106 -250 -29 -65 -221 -566 -283 -740 -14
-38 -39 -108 -56 -155 -39 -108 -222 -665 -245 -745 -10 -33 -31 -100 -46
-150 -89 -284 -260 -926 -325 -1215 -2 -8 -20 -87 -40 -175 -35 -155 -78 -354
-115 -540 -5 -27 -12 -63 -15 -80 -4 -28 -19 -104 -29 -150 -2 -11 -11 -63
-20 -115 -9 -52 -18 -106 -21 -120 -3 -14 -7 -42 -10 -62 -3 -20 -9 -56 -14
-80 -5 -24 -12 -65 -15 -93 -4 -27 -15 -104 -26 -170 -21 -130 -21 -133 -45
-310 -9 -66 -18 -131 -20 -145 -2 -14 -7 -47 -10 -75 -3 -27 -7 -66 -10 -85
-2 -19 -7 -60 -10 -90 -4 -30 -8 -65 -10 -78 -2 -12 -7 -57 -10 -100 -4 -42
-9 -85 -10 -94 -2 -9 -7 -57 -10 -105 -4 -48 -9 -95 -10 -104 -2 -9 -6 -52
-10 -95 -3 -43 -8 -98 -10 -120 -17 -172 -20 -405 -20 -1699 0 -1273 4 -1578
20 -1720 2 -16 6 -66 10 -110 3 -44 8 -93 10 -110 2 -16 7 -61 10 -100 4 -38
8 -83 10 -100 2 -16 7 -61 10 -98 4 -37 8 -76 10 -85 1 -9 6 -48 10 -85 3 -37
8 -76 9 -85 2 -9 7 -44 11 -77 4 -33 9 -75 11 -92 2 -18 6 -50 9 -70 2 -21 7
-54 10 -73 2 -19 7 -53 10 -75 3 -23 7 -52 10 -65 2 -13 7 -46 10 -74 3 -28 7
-58 10 -66 2 -8 6 -35 9 -60 4 -25 8 -56 10 -70 3 -14 7 -43 11 -65 3 -22 14
-89 25 -150 11 -60 22 -128 25 -150 3 -22 10 -60 15 -85 5 -25 24 -119 41
-210 17 -91 33 -174 35 -185 2 -11 7 -33 10 -50 62 -342 266 -1166 414 -1670
101 -346 314 -1002 340 -1047 6 -10 10 -22 10 -28 0 -36 322 -863 460 -1180
39 -91 72 -169 73 -175 2 -5 5 -14 9 -20 3 -5 33 -71 66 -145 33 -74 77 -171
97 -215 21 -44 50 -107 65 -141 115 -250 504 -1011 577 -1126 12 -21 23 -40
23 -43 0 -3 35 -68 79 -143 43 -75 89 -157 103 -182 139 -250 457 -759 697
-1118 108 -162 201 -301 206 -310 6 -10 12 -19 15 -22 3 -3 44 -59 90 -125 90
-128 380 -527 390 -535 3 -3 31 -39 62 -80 104 -138 171 -224 312 -400 156
-194 167 -207 181 -224 6 -6 44 -51 85 -101 41 -49 79 -95 85 -101 5 -6 30
-35 55 -64 55 -66 177 -207 239 -275 164 -182 208 -231 224 -249 241 -277 867
-903 1293 -1293 61 -55 278 -250 308 -276 12 -10 46 -40 76 -66 30 -26 93 -80
140 -120 47 -40 96 -83 110 -94 14 -12 50 -42 80 -67 30 -25 57 -47 60 -50 3
-3 34 -29 70 -58 36 -29 73 -60 83 -68 351 -286 901 -697 1297 -969 161 -111
537 -360 602 -400 10 -5 131 -80 270 -166 249 -153 339 -208 408 -247 19 -11
70 -40 113 -66 43 -25 80 -46 83 -46 3 0 18 -8 32 -18 34 -23 441 -245 622
-340 264 -136 801 -402 814 -402 2 0 50 -22 107 -49 57 -26 140 -64 184 -83
44 -20 105 -47 135 -61 112 -51 462 -196 665 -276 116 -46 219 -87 230 -92 29
-13 438 -162 515 -188 36 -12 74 -26 85 -31 11 -5 119 -41 240 -80 121 -40
229 -76 240 -80 11 -5 67 -23 125 -40 58 -18 139 -43 180 -55 41 -13 156 -46
255 -74 99 -29 205 -59 235 -68 30 -9 60 -17 65 -19 18 -3 139 -35 170 -44
151 -45 931 -226 1144 -265 22 -4 87 -17 151 -31 76 -16 532 -97 620 -110 19
-3 73 -12 120 -19 47 -8 108 -17 135 -20 47 -6 72 -9 120 -19 24 -4 91 -13
160 -22 28 -3 61 -7 75 -9 74 -10 109 -15 150 -19 25 -3 101 -12 170 -20 69
-8 152 -17 185 -21 33 -3 71 -8 85 -10 14 -2 59 -7 100 -10 41 -3 91 -7 110
-9 19 -3 71 -8 115 -11 44 -4 98 -8 120 -10 85 -8 414 -30 605 -40 284 -15
528 -20 1070 -20 563 1 770 5 1055 20 149 8 392 24 455 30 25 2 88 7 140 10
52 4 106 8 120 10 14 2 64 6 112 10 47 3 94 7 105 9 10 2 52 7 94 10 42 4 87
9 100 11 13 2 51 6 84 10 119 12 136 14 265 30 91 11 106 13 165 20 33 4 69 9
80 11 11 3 40 7 65 10 25 3 52 7 60 9 8 2 42 7 75 11 33 3 69 8 80 10 11 3 38
7 60 9 22 3 65 10 95 15 52 9 76 13 153 25 17 3 82 14 143 25 61 11 129 22
150 26 21 3 41 7 44 9 3 2 24 6 46 9 42 7 59 10 139 26 28 5 65 12 84 15 19 3
37 7 40 9 3 2 26 7 51 10 25 3 61 11 80 16 19 6 51 13 70 16 71 11 536 118
745 170 33 9 67 17 75 19 25 5 240 62 325 85 44 12 85 23 90 24 6 1 35 10 65
19 30 9 80 23 110 31 232 61 881 269 1180 376 63 23 126 45 140 50 107 34 599
225 885 343 165 68 531 228 685 299 36 17 94 44 130 60 225 105 545 263 810
401 194 101 594 319 675 369 17 10 37 21 45 25 8 3 38 20 65 37 28 18 71 43
98 56 26 14 47 28 47 32 0 5 5 8 10 8 6 0 41 19 78 41 37 23 76 47 87 53 165
92 850 535 1067 690 31 23 96 68 144 101 76 52 239 169 269 192 6 5 44 33 85
63 41 30 80 58 85 62 19 15 333 253 365 278 18 14 38 30 44 35 6 6 40 33 76
60 36 28 67 52 70 55 3 3 64 52 135 110 72 57 132 107 135 110 4 4 129 109
203 170 10 8 29 24 41 35 13 11 52 45 87 75 72 62 139 121 249 219 70 62 107
96 270 245 306 280 689 661 1105 1100 11 12 58 64 105 116 47 52 92 102 101
110 8 8 66 74 129 145 63 72 116 132 119 135 4 3 31 34 61 70 30 36 57 67 60
70 4 3 51 59 106 125 54 66 107 129 118 140 10 11 30 36 44 55 15 19 29 37 32
40 10 8 231 287 333 420 134 173 130 168 223 293 46 62 87 117 91 122 9 11
205 285 269 375 230 328 634 947 634 971 0 5 4 9 9 9 5 0 11 8 15 17 3 10 14
30 23 45 24 37 256 424 282 471 12 21 40 71 62 110 214 374 582 1080 707 1357
11 25 39 86 62 135 332 712 651 1523 900 2290 34 105 63 197 66 205 2 8 20 69
40 135 112 367 308 1091 348 1286 3 13 7 33 10 44 2 11 12 54 21 95 9 41 18
82 20 90 6 25 56 253 61 275 10 50 73 374 78 405 3 19 8 46 11 60 10 52 54
296 59 330 3 19 8 46 10 59 3 12 8 42 10 65 3 22 8 52 10 66 7 36 39 253 51
335 1 11 6 47 9 80 4 33 9 67 11 75 2 8 7 42 11 75 3 33 8 68 10 78 2 10 6 48
10 85 3 36 7 73 9 82 1 8 6 44 10 80 4 36 9 77 10 93 2 15 7 62 10 105 4 42 9
84 10 93 2 8 6 55 10 105 4 49 8 100 10 113 2 13 7 62 10 110 3 47 8 106 10
131 8 91 18 252 30 470 33 572 37 1469 10 2010 -5 101 -16 307 -20 370 -2 25
-6 90 -9 145 -4 55 -8 123 -11 150 -2 28 -7 79 -10 115 -11 140 -21 247 -30
340 -3 30 -8 75 -10 100 -8 78 -38 338 -50 435 -2 22 -7 63 -10 90 -3 28 -8
57 -10 65 -2 8 -6 40 -10 70 -3 30 -7 66 -9 80 -7 40 -25 162 -30 200 -3 19
-12 80 -21 135 -9 55 -18 111 -20 125 -2 14 -7 41 -10 60 -4 19 -8 44 -10 55
-3 23 -62 357 -70 395 -10 50 -44 226 -49 250 -6 32 -24 119 -30 145 -2 11 -9
40 -15 65 -5 25 -12 56 -15 70 -2 14 -10 48 -16 75 -6 28 -14 61 -16 75 -5 23
-14 60 -74 315 -12 50 -23 98 -25 108 -7 30 -106 410 -116 442 -5 17 -23 80
-39 140 -67 244 -273 916 -300 980 -5 11 -25 67 -44 125 -116 350 -400 1095
-507 1327 -10 24 -19 45 -19 47 0 4 -184 422 -231 526 -176 382 -463 952 -652
1295 -40 71 -77 139 -84 150 -7 11 -16 29 -22 41 -15 33 -319 551 -365 624
-23 36 -45 72 -49 80 -4 8 -15 27 -25 42 -9 15 -35 55 -56 90 -73 116 -168
261 -305 467 -75 112 -140 211 -146 219 -5 9 -49 72 -97 141 -48 69 -93 134
-100 145 -16 22 -109 150 -226 311 -251 343 -635 828 -917 1155 -49 58 -101
118 -115 134 -14 17 -47 55 -75 86 -27 31 -84 94 -125 141 -41 46 -102 113
-135 149 -33 35 -64 69 -70 76 -136 154 -795 823 -990 1004 -160 149 -311 288
-355 326 -24 21 -51 46 -60 55 -14 15 -150 134 -320 279 -35 30 -82 71 -104
91 -190 166 -712 581 -1011 803 -71 52 -141 104 -155 115 -26 20 -40 30 -247
176 -217 153 -263 185 -443 305 -265 177 -409 270 -419 270 -5 0 -11 3 -13 8
-3 8 -135 90 -378 237 -80 48 -162 98 -182 111 -21 13 -39 24 -42 24 -2 0 -48
26 -103 58 -130 78 -429 244 -578 322 -66 35 -124 66 -130 71 -14 10 -671 339
-765 382 -41 19 -115 54 -165 77 -49 23 -110 51 -135 62 -25 11 -67 31 -95 43
-54 25 -200 89 -252 111 -57 24 -96 41 -170 73 -39 17 -75 31 -79 31 -4 0 -25
9 -48 19 -132 62 -666 268 -946 366 -58 20 -134 47 -170 60 -162 59 -851 280
-902 289 -7 1 -51 14 -98 28 -126 39 -592 166 -670 183 -8 1 -35 8 -60 15 -25
7 -52 13 -60 15 -8 2 -114 27 -235 55 -121 29 -229 54 -240 56 -27 5 -254 54
-285 61 -14 3 -34 7 -45 9 -11 1 -31 5 -45 7 -170 35 -295 59 -390 76 -63 11
-128 23 -145 26 -214 38 -415 70 -500 80 -27 3 -75 10 -105 15 -30 6 -71 12
-90 14 -19 3 -89 12 -155 20 -66 9 -140 18 -165 21 -25 3 -61 7 -80 10 -19 2
-60 7 -90 10 -30 4 -66 8 -80 10 -14 2 -59 7 -100 10 -41 4 -82 8 -90 10 -8 1
-55 6 -103 10 -48 3 -96 8 -105 10 -9 1 -62 6 -117 10 -55 4 -111 8 -125 10
-14 2 -77 6 -140 10 -63 4 -128 10 -145 13 -33 6 -2539 15 -2546 8z"/>
</g>
</svg>
